{"title":"Apocalypto.2006.DVDRIP-ZEKTORM","uid":4681352,"size":738984891,"categoryP":"video","categoryS":"movies","magnet":"?xt=urn:btih:4aa3523d3454b774958dc268ecc138b84f477ad7&amp;dn=Apocalypto.2006.DVDRIP-ZEKTORM&amp;tr=udp%3A%2F%2Ftracker.openbittorrent.com%3A80&amp;tr=udp%3A%2F%2Fopen.demonii.com%3A1337&amp;tr=udp%3A%2F%2Ftracker.coppersurfer.tk%3A6969&amp;tr=udp%3A%2F%2Fexodus.desync.com%3A6969","seeders":1,"leechers":0,"uploader":"blowley","files":4,"time":1233083980,"description":"Title                            : Apocalypto\nYear                             : 2006\nGenre                            : Action | Adventure | Drama\niMDB Rate                        : User Rating: 7.9/10   63,784 votes \niMDB URL                         : http://www.imdb.com/title/tt0472043/\nAwards                           : Nominated for 3 Oscars. Another 6 wins &amp; 13 nominations\n\nComplete name                    : Apocalypto.2006.DVDRIP-ZEKTORM.mp4\nFormat                           : MPEG-4\nFormat profile                   : Base Media\nCodec ID                         : isom\nFile size                        : 700 MiB\nDuration                         : 2h 18mn\nOverall bit rate                 : 707 Kbps\nSubtitles                        : English, Spanish, French (Format: VobSub)\nSource                           : DVD NTSC\nEncoded date                     : UTC 2009-01-25 22:13:03\n\nVideo\nFormat                           : AVC\nFormat/Info                      : Advanced Video Codec\nFormat profile                   : &lt;a class=&quot;__cf_email__&quot; href=&quot;/cdn-cgi/l/email-protection&quot; data-cfemail=&quot;521a3b353a121e667c63&quot;&gt;[email&amp;#160;protected]&lt;/a&gt;&lt;script cf-hash='f9e31' type=&quot;text/javascript&quot;&gt;\n/* &lt;![CDATA[ */!function(){try{var t=&quot;currentScript&quot;in document?document.currentScript:function(){for(var t=document.getElementsByTagName(&quot;script&quot;),e=t.length;e--;)if(t[e].getAttribute(&quot;cf-hash&quot;))return t[e]}();if(t&amp;&amp;t.previousSibling){var e,r,n,i,c=t.previousSibling,a=c.getAttribute(&quot;data-cfemail&quot;);if(a){for(e=&quot;&quot;,r=parseInt(a.substr(0,2),16),n=2;a.length-n;n+=2)i=parseInt(a.substr(n,2),16)^r,e+=String.fromCharCode(i);e=document.createTextNode(e),c.parentNode.replaceChild(e,c)}}}catch(u){}}();/* ]]&gt; */&lt;/script&gt;\nFormat settings, CABAC           : Yes\nFormat settings, ReFrames        : 10 frames\nCodec ID                         : avc1\nCodec ID/Info                    : Advanced Video Coding\nDuration                         : 2h 18mn\nBit rate mode                    : Variable\nBit rate                         : 614 Kbps\nMaximum bit rate                 : 4379 Kbps\nWidth                            : 720 pixels\nHeight                           : 448 pixels\nDisplay aspect ratio             : 1.948\nFrame rate mode                  : Constant\nFrame rate                       : 23.976 fps\nResolution                       : 24 bits\nColorimetry                      : 4:2:0\nScan type                        : Progressive\nBits/(Pixel*Frame)               : 0.079\nStream size                      : 608 MiB (87%)\nTitle                            : Video\nWriting library                  : x264 core 60 r900 a9af942\n\nAudio\nFormat                           : AAC\nFormat/Info                      : Advanced Audio Codec\nFormat version                   : Version 4\nFormat profile                   : LC\nFormat settings, SBR             : Yes\nFormat settings, PS              : No\nCodec ID                         : 40\nDuration                         : 2h 18mn\nBit rate mode                    : Variable\nBit rate                         : 90.4 Kbps\nMaximum bit rate                 : 107 Kbps\nChannel(s)                       : 2 channels\nChannel positions                : L R\nSampling rate                    : 48.0 KHz\nResolution                       : 16 bits\nStream size                      : 89.5 MiB (13%)\nLanguage                         : Yucatec Maya\n\nNotes                            : Convert to DVD with Nero","torrent":{"xt":"urn:btih:4aa3523d3454b774958dc268ecc138b84f477ad7","amp;dn":"Apocalypto.2006.DVDRIP-ZEKTORM","amp;tr":["udp%3A%2F%2Ftracker.openbittorrent.com%3A80","udp%3A%2F%2Fopen.demonii.com%3A1337","udp%3A%2F%2Ftracker.coppersurfer.tk%3A6969","udp%3A%2F%2Fexodus.desync.com%3A6969"],"infoHash":"4aa3523d3454b774958dc268ecc138b84f477ad7","infoHashBuffer":{"type":"Buffer","data":[74,163,82,61,52,84,183,116,149,141,194,104,236,193,56,184,79,71,122,215]},"announce":[],"urlList":[]}}